<svg width="360" height="40" xmlns="http://www.w3.org/2000/svg"><g fill-rule="nonzero" fill="none"><path d="M16-363h328c8.837 0 16 7.163 16 16V24c0 8.837-7.163 16-16 16H16C7.163 40 0 32.837 0 24v-371c0-8.837 7.163-16 16-16z" fill="#FFF"/><path d="M8 13.998a.5.5 0 1 1-1 0v-349.5a.5.5 0 0 1 .5-.5c5.252 0 9.5-4.034 9.5-8.999 0-4.964-4.248-8.999-9.5-8.999a.5.5 0 0 1 0-1c5.793 0 10.5 4.471 10.5 10 0 5.368-4.438 9.74-10 9.988v349.01zM351.5 14.023a.5.5 0 0 0 1 0v-350.126a.5.5 0 0 0-.5-.5c-4.689 0-8.5-4.001-8.5-8.949 0-4.947 3.811-8.948 8.5-8.948a.5.5 0 1 0 0-1c-5.252 0-9.5 4.46-9.5 9.948 0 5.314 3.98 9.663 9 9.935v349.64z" fill="#EDE8FF"/><path d="M352 33.5a.5.5 0 0 0 .5-.5c0-5.523-4.477-10-10-10h.014a9 9 0 0 1 8.986-8.5.5.5 0 1 0 0-1c-5.372 0-9.754 4.235-9.99 9.549-5.058.497-9.01 4.762-9.01 9.951a.5.5 0 1 0 1 0 9.001 9.001 0 0 1 8.015-8.947c.288 5.266 4.648 9.447 9.985 9.447a.498.498 0 0 0 .25-.067.493.493 0 0 0 .25.067zm-.514-1l-.251-.004A9 9 0 0 1 342.514 24a9 9 0 0 1 8.972 8.5zM7 33.5a.5.5 0 0 1-.5-.5c0-5.523 4.477-10 10-10h-.014A9 9 0 0 0 7.5 14.5a.5.5 0 1 1 0-1c5.372 0 9.754 4.235 9.99 9.549 5.058.497 9.01 4.762 9.01 9.951a.5.5 0 1 1-1 0 9.001 9.001 0 0 0-8.015-8.947C17.197 29.32 12.837 33.5 7.5 33.5a.498.498 0 0 1-.25-.067.493.493 0 0 1-.25.067zm.514-1H7.5a9 9 0 0 0 8.986-8.5 9 9 0 0 0-8.972 8.5z" fill="#EDE8FF"/><path d="M26.137 33.5H333a.5.5 0 1 0 0-1H26.137a.5.5 0 0 0 0 1z" fill="#EDE8FF"/></g></svg>