<svg width="360" height="2" xmlns="http://www.w3.org/2000/svg"><g fill-rule="nonzero" fill="none"><path d="M16-216h328c8.837 0 16 7.163 16 16v371c0 8.837-7.163 16-16 16H16c-8.837 0-16-7.163-16-16v-371c0-8.837 7.163-16 16-16z" fill="#FFF"/><path d="M8 160.998a.5.5 0 1 1-1 0v-349.5a.5.5 0 0 1 .5-.5c5.252 0 9.5-4.034 9.5-8.999 0-4.964-4.248-8.999-9.5-8.999a.5.5 0 0 1 0-1c5.793 0 10.5 4.471 10.5 10 0 5.368-4.438 9.74-10 9.988v349.01zM351.5 161.023a.5.5 0 0 0 1 0v-350.126a.5.5 0 0 0-.5-.5c-4.689 0-8.5-4.001-8.5-8.949 0-4.947 3.811-8.948 8.5-8.948a.5.5 0 1 0 0-1c-5.252 0-9.5 4.46-9.5 9.948 0 5.314 3.98 9.663 9 9.935v349.64z" fill="#EDE8FF"/></g></svg>