<svg width="360" height="40" xmlns="http://www.w3.org/2000/svg"><g fill-rule="nonzero" fill="none"><path d="M16 0h328c8.837 0 16 7.163 16 16v371c0 8.837-7.163 16-16 16H16c-8.837 0-16-7.163-16-16V16C0 7.163 7.163 0 16 0z" fill="#FFF"/><path d="M333 8.5a.5.5 0 1 0 0-1H27.002a.5.5 0 0 0-.5.5c0 5.252-4.036 9.5-9 9.5C12.535 17.5 8.5 13.252 8.5 8a.5.5 0 0 0-1 0c0 5.793 4.472 10.5 10.001 10.5 5.37 0 9.741-4.438 9.99-10H333z" fill="#EDE8FF"/><path d="M8 376.998a.5.5 0 1 1-1 0v-349.5a.5.5 0 0 1 .5-.5c5.252 0 9.5-4.034 9.5-8.999C17 13.035 12.752 9 7.5 9a.5.5 0 0 1 0-1C13.293 8 18 12.471 18 18c0 5.368-4.438 9.74-10 9.988v349.01zM351.5 377.023a.5.5 0 0 0 1 0V26.897a.5.5 0 0 0-.5-.5c-4.689 0-8.5-4.001-8.5-8.949 0-4.947 3.811-8.948 8.5-8.948a.5.5 0 1 0 0-1c-5.252 0-9.5 4.46-9.5 9.948 0 5.314 3.98 9.663 9 9.935v349.64z" fill="#EDE8FF"/><path d="M332.5 8c0 5.793 4.471 10.5 10 10.5s10-4.707 10-10.5a.5.5 0 1 0-1 0c0 5.252-4.035 9.5-9 9.5s-9-4.248-9-9.5a.5.5 0 1 0-1 0z" fill="#EDE8FF"/></g></svg>