<?xml version="1.0" encoding="UTF-8"?>
<svg width="371px" height="373px" viewBox="0 0 371 373" version="1.1" xmlns="http://www.w3.org/2000/svg" xmlns:xlink="http://www.w3.org/1999/xlink">
    <!-- Generator: Sketch 57.1 (83088) - https://sketch.com -->
    <title>Group 9</title>
    <desc>Created with Sketch.</desc>
    <g id="页面-2" stroke="none" stroke-width="1" fill="none" fill-rule="evenodd" stroke-linecap="round" stroke-linejoin="round">
        <g id="3-4-成绩单备份-2" transform="translate(-2.000000, -72.000000)" stroke-width="3">
            <g id="Group-9" transform="translate(4.000000, 74.000000)">
                <polyline id="Path-17-Copy-4" stroke="#FF4CF7" transform="translate(140.138676, 4.980648) rotate(-28.000000) translate(-140.138676, -4.980648) " points="138.733324 0.590999089 137.785353 5.856162 141.023079 4.98064753 142.491998 9.37029596"></polyline>
                <polyline id="Path-17-Copy-7" stroke="#FF4CF7" transform="translate(25.138676, 146.980648) rotate(-28.000000) translate(-25.138676, -146.980648) " points="23.7333239 142.590999 22.785353 147.856162 26.0230794 146.980648 27.4919981 151.370296"></polyline>
                <polyline id="Path-17-Copy-9" stroke="#FF4CF7" transform="translate(359.138676, 151.980648) rotate(-28.000000) translate(-359.138676, -151.980648) " points="357.733324 147.590999 356.785353 152.856162 360.023079 151.980648 361.491998 156.370296"></polyline>
                <path d="M215.07509,0 C210.560028,5.4389568 222.060441,3.06835937 216.820292,10.5957031" id="Path-2" stroke="#B8E986"></path>
                <path d="M97.0750897,118 C92.5600278,123.438957 104.060441,121.068359 98.8202921,128.595703" id="Path-2-Copy" stroke="#F9A360"></path>
                <path d="M36,247 C36.1214193,247.578776 37.8785807,250.488118 38,251.066895" id="Path-3" stroke="#B8E986"></path>
                <path d="M282,161 C282.121419,161.578776 283.878581,164.488118 284,165.066895" id="Path-3-Copy-2" stroke="#FF6464"></path>
                <path d="M46,119 C46.1214193,119.578776 47.8785807,122.488118 48,123.066895" id="Path-3-Copy-3" stroke="#B8E986"></path>
                <path d="M310,247 C310.121419,247.578776 311.878581,250.488118 312,251.066895" id="Path-3-Copy-6" stroke="#F9A360" transform="translate(311.000000, 249.033447) scale(-1, 1) translate(-311.000000, -249.033447) "></path>
                <path d="M251,119 C251.121419,119.578776 252.878581,122.488118 253,123.066895" id="Path-3-Copy-7" stroke="#B8E986" transform="translate(252.000000, 121.033447) scale(-1, 1) translate(-252.000000, -121.033447) "></path>
                <path d="M360,235 C360.121419,235.578776 361.878581,238.488118 362,239.066895" id="Path-3-Copy-4" stroke="#B8E986"></path>
                <path d="M4,365 C4.12141927,365.578776 5.87858073,368.488118 6,369.066895" id="Path-3-Copy-5" stroke="#B8E986" transform="translate(5.000000, 367.033447) scale(-1, 1) translate(-5.000000, -367.033447) "></path>
                <path d="M243,89 C243.121419,89.578776 244.878581,92.4881185 245,93.0668945" id="Path-3-Copy" stroke="#B8E986"></path>
                <path d="M191.000041,29 C190.991903,30.3317057 193.398804,32.1453451 193.390687,33.4770508" id="Path-4" stroke="#50E3C2"></path>
                <path d="M238.000977,29 C237.333984,30.0520833 236.666992,31.1041667 236,32.15625" id="Path-5" stroke="#FF4CF7"></path>
                <polyline id="Path-17-Copy-3" stroke="#F8E71C" points="47 33 47 38 51 43"></polyline>
                <polyline id="Path-17-Copy-5" stroke="#F8E71C" points="280.610269 27 284.610269 29 284.610269 35"></polyline>
                <polyline id="Path-17-Copy-12" stroke="#F8E71C" transform="translate(9.422260, 104.138181) scale(-1, 1) rotate(-108.000000) translate(-9.422260, -104.138181) " points="7.42226005 100.138181 11.4222601 102.138181 11.4222601 108.138181"></polyline>
                <polyline id="Path-17-Copy-14" stroke="#60F0F9" transform="translate(271.422260, 112.138181) scale(-1, 1) rotate(-108.000000) translate(-271.422260, -112.138181) " points="269.42226 108.138181 273.42226 110.138181 273.42226 116.138181"></polyline>
                <polyline id="Path-17-Copy-11" stroke="#F8E71C" points="296 97 300 99 300 105"></polyline>
                <polyline id="Path-17-Copy-13" stroke="#F8E71C" transform="translate(69.000000, 164.000000) scale(-1, 1) translate(-69.000000, -164.000000) " points="67 160 71 162 71 168"></polyline>
                <polyline id="Path-17-Copy-16" stroke="#F8E71C" transform="translate(316.000000, 165.000000) scale(-1, 1) translate(-316.000000, -165.000000) " points="314 161 318 163 318 169"></polyline>
                <polyline id="Path-17-Copy-17" stroke="#F8E71C" transform="translate(364.000000, 313.066895) rotate(-22.000000) translate(-364.000000, -313.066895) " points="362 309.066895 366 311.066895 366 317.066895"></polyline>
                <polyline id="Path-17-Copy-8" stroke="#FF4CF7" points="309 25.4648438 310.720703 22 315.290039 23.4648438"></polyline>
                <polyline id="Path-17-Copy-10" stroke="#FF4CF7" points="297 140.464844 298.720703 137 303.290039 138.464844"></polyline>
                <polyline id="Path-17-Copy-15" stroke="#FF4CF7" points="93 202.464844 94.7207031 199 99.2900391 200.464844"></polyline>
                <polyline id="Path-17-Copy-6" stroke="#50E3C2" points="362 72 362 74.5 363 77"></polyline>
                <path d="M83.6552734,90 C81.7701823,91.8990885 79.8850911,93.7981771 78,95.6972656" id="Path-28" stroke="#B8E986"></path>
                <path d="M118,94 C119.398763,95.258138 121.962891,97.2875977 121.962891,99.1748047" id="Path-30" stroke="#5FC2FE"></path>
                <path d="M268,198 C269.398763,199.258138 271.962891,201.287598 271.962891,203.174805" id="Path-30-Copy-2" stroke="#5FC2FE" transform="translate(269.981445, 200.587402) scale(-1, 1) translate(-269.981445, -200.587402) "></path>
                <path d="M315,112 C316.398763,113.258138 318.962891,115.287598 318.962891,117.174805" id="Path-30-Copy" stroke="#F5A623" transform="translate(316.981445, 114.587402) scale(-1, 1) translate(-316.981445, -114.587402) "></path>
                <path d="M0,302 C1.39876302,303.258138 3.96289062,305.287598 3.96289062,307.174805" id="Path-30-Copy-3" stroke="#F5A623" transform="translate(1.981445, 304.587402) scale(-1, 1) translate(-1.981445, -304.587402) "></path>
                <path d="M95.2926952,20 C93.0734055,21.5403876 91.8869335,24.1391602 94.4489487,25.340332" id="Path-31" stroke="#B8E986"></path>
                <path d="M118.292695,26 C116.073405,27.5403876 114.886933,30.1391602 117.448949,31.340332" id="Path-31" stroke="#60F0F9" transform="translate(117.146348, 28.670166) scale(-1, 1) translate(-117.146348, -28.670166) "></path>
            </g>
        </g>
    </g>
</svg>