<?xml version="1.0" encoding="UTF-8"?>
<svg width="375px" height="142px" viewBox="0 0 375 142" version="1.1" xmlns="http://www.w3.org/2000/svg" xmlns:xlink="http://www.w3.org/1999/xlink">
    <!-- Generator: Sketch 57.1 (83088) - https://sketch.com -->
    <title>3-4 成绩单备份</title>
    <desc>Created with Sketch.</desc>
    <g id="3-4-成绩单备份" stroke="none" stroke-width="1" fill="none" fill-rule="evenodd">
        <g id="Group-8-Copy-3" transform="translate(63.957097, 26.740204) rotate(-49.000000) translate(-63.957097, -26.740204) translate(40.957097, 1.740204)">
            <path d="M2.66007368,20.399849 C5.72142065,8.98549801 16.6431771,1.9917137 27.0545002,4.7787942 C37.465823,7.56587566 43.4241563,19.0784111 40.3628107,30.4927624 C37.3517427,41.719646 26.736341,48.6699758 16.4817413,46.2432495 L16.4810357,48.3333333 L11.7504437,47.5691697 L13.5098736,45.2614986 C4.64426807,41.4475494 -0.151333923,30.882296 2.66007368,20.399849 Z" id="Combined-Shape-Copy" fill="#B1FF4B" transform="translate(21.511442, 26.250000) rotate(5.000000) translate(-21.511442, -26.250000) "></path>
            <ellipse id="Oval-Copy-5" fill="#D4FFB1" fill-rule="nonzero" transform="translate(23.512439, 22.090160) rotate(16.000000) translate(-23.512439, -22.090160) " cx="23.512439" cy="22.0901596" rx="17.5588102" ry="17.9216247"></ellipse>
            <path d="M33.0986047,20.7242064 C35.6380378,20.7271621 37.6938208,18.3034044 37.690329,15.3105895 C37.6868283,12.3177746 35.6253768,9.88922052 33.0859437,9.88625923 C30.5465106,9.88330383 32.5097821,12.1113357 32.5132783,15.1041506 C32.5167746,18.0969655 30.5591716,20.7212454 33.0986047,20.7242064 Z" id="Oval-Copy-6" fill="#FFFFFF" fill-rule="nonzero" transform="translate(34.738166, 15.305233) rotate(-20.000000) translate(-34.738166, -15.305233) "></path>
        </g>
        <path d="M32.0169396,48 L344,48 C352.836556,48 360,55.163444 360,64 L360,595 C360,603.836556 352.836556,611 344,611 L41.115313,611 C35.9078871,611 30.7004613,611 25.4930354,611 C18.8970061,611 15.7383075,606.82671 16.0169396,598.480131 L16.0169396,598.480131 L16.0169396,64 C16.0169396,55.163444 23.1803836,48 32.0169396,48 Z" id="Rectangle-4" fill="#FFFFFF"></path>
        <path d="M344.808594,60 L322,133" id="Path-8" stroke="#737373" opacity="0.195424107"></path>
        <g id="Group-2" transform="translate(36.000000, 16.000000)" fill="#FFFFFF" fill-rule="nonzero">
            <ellipse id="Oval" cx="21.5" cy="37.5" rx="21.5" ry="20.5"></ellipse>
            <ellipse id="Oval-Copy-4" cx="282.5" cy="37.5" rx="21.5" ry="20.5"></ellipse>
            <ellipse id="Oval-Copy" cx="53.5" cy="29.5" rx="21.5" ry="20.5"></ellipse>
            <ellipse id="Oval-Copy" cx="250.5" cy="29.5" rx="21.5" ry="20.5"></ellipse>
            <ellipse id="Oval-Copy-2" cx="86.5" cy="25.5" rx="21.5" ry="20.5"></ellipse>
            <ellipse id="Oval-Copy-2" cx="217.5" cy="25.5" rx="21.5" ry="20.5"></ellipse>
            <ellipse id="Oval-Copy-3" cx="119.5" cy="20.5" rx="21.5" ry="20.5"></ellipse>
            <ellipse id="Oval-Copy-3" cx="184.5" cy="20.5" rx="21.5" ry="20.5"></ellipse>
            <ellipse id="Oval-Copy-3" cx="152.5" cy="20.5" rx="21.5" ry="20.5"></ellipse>
        </g>
        <g id="Group-4" transform="translate(45.158002, 77.679455) scale(-1, 1) rotate(-45.000000) translate(-45.158002, -77.679455) translate(-3.341998, 51.679455)">
            <path d="M53.8760352,27.3233765 L56.8431458,32.2414807 C41.2526448,40.7290124 26.159903,46.8441987 11.5649202,50.5870396 C-2.28055605,54.1376717 -1.89993341,44.0587392 8.03572995,37.1917401 C3.58281959,41.6374061 -2.27534022,51.3628884 10.8575787,47.7045364 C21.3488156,44.7820607 35.6883011,37.9883407 53.8760352,27.3233765 Z" id="Path-20" fill="#FFB766"></path>
            <g id="Group-17-Copy" transform="translate(71.725017, 21.518602) rotate(62.000000) translate(-71.725017, -21.518602) translate(59.725017, -0.481398)">
                <path d="M12.0321748,2.4870696 C15.0860012,7.58759007 17.1519565,13.6316291 18.2300407,20.6191866 C19.3081249,27.6067442 18.5558505,34.6492334 15.9732173,41.7466544 L8.09113235,41.7466544 C5.21125627,34.6492334 4.41214125,27.6067442 5.69378726,20.6191866 C6.97543328,13.6316291 9.08822913,7.58759007 12.0321748,2.4870696 Z" id="Rectangle-30" fill="#999999"></path>
                <path d="M12.0321748,2.4870696 C15.0860012,7.58759007 17.1519565,13.6316291 18.2300407,20.6191866 C19.2269962,27.0809116 18.6587066,33.5896118 16.5251719,40.1452874 C15.3839695,40.1951435 8.07646577,40.2435563 7.51084493,40.2404412 C5.10854983,33.6524882 4.50286395,27.1121223 5.69378726,20.6191866 C6.97543328,13.6316291 9.08822913,7.58759007 12.0321748,2.4870696 Z" id="Rectangle-30" fill="#737373"></path>
                <path d="M3.68982242,29.4303236 C2.19844476,29.4303236 -4.54747351e-13,30.6463306 -4.54747351e-13,32.323517 C-4.54747351e-13,33.4416413 -4.54747351e-13,35.7447413 -4.54747351e-13,39.2328171 C1.06086372,37.4068494 2.52678283,36.4938656 4.39775735,36.4938656 C7.20421911,36.4938656 5.18120007,29.4303236 3.68982242,29.4303236 Z" id="Path-19" fill="#FF7878"></path>
                <path d="M21.5458224,29.4303236 C20.0544448,29.4303236 17.856,30.6463306 17.856,32.323517 C17.856,33.4416413 17.856,35.7447413 17.856,39.2328171 C18.9168637,37.4068494 20.3827828,36.4938656 22.2537573,36.4938656 C25.0602191,36.4938656 23.0372001,29.4303236 21.5458224,29.4303236 Z" id="Path-19-Copy" fill="#FF7878" transform="translate(20.756656, 34.331570) scale(-1, 1) translate(-20.756656, -34.331570) "></path>
                <path d="M12.0962622,-5.68434189e-14 C16.6770018,5.10052047 19.7759348,11.1445595 21.3930611,18.132117 C23.0101874,25.1196746 21.8817757,32.1621638 18.0078259,39.2595848 L6.18469852,39.2595848 C1.86488441,32.1621638 0.666211868,25.1196746 2.58868089,18.132117 C4.51114992,11.1445595 7.6803437,5.10052047 12.0962622,-5.68434189e-14 Z" id="Rectangle-30" fill="#FFD04D"></path>
                <path d="M12.0962622,-1.5720758e-13 C16.6770018,5.10052047 19.7759348,11.1445595 21.3930611,18.132117 C23.0101874,25.1196746 21.8817757,32.1621638 18.0078259,39.2595848 L9.84924505,39.2595848 C14.1277619,37.275232 16.9103582,32.2186045 18.1970338,24.0897022 C19.4837095,15.9608 17.450119,7.93089922 12.0962622,-1.5720758e-13 Z" id="Rectangle-30" fill="#FFB700"></path>
                <path d="M12.0962622,-5.68434189e-14 C15.6741399,3.98386289 18.3480116,8.54333827 20.1178773,13.6784262 L4.03100181,13.6773775 C5.95893593,8.54271755 8.64735607,3.98359171 12.0962622,-5.68434189e-14 Z" id="Combined-Shape" fill="#FF6464"></path>
                <path d="M12.0962622,-3.35287353e-14 C15.6741399,3.98386289 18.3480116,8.54333827 20.1178773,13.6784262 L17.9327608,13.6778236 C17.0607482,8.83631343 15.1152487,4.27703888 12.0962622,-3.35287353e-14 Z" id="Combined-Shape" fill="#FB4646"></path>
                <ellipse id="Oval-13" stroke="#FFE9AB" stroke-width="2" cx="13.4727789" cy="24.5491349" rx="6.16457143" ry="6.01041821"></ellipse>
                <ellipse id="Oval-13" stroke="#FFFFFF" stroke-width="2" cx="12.1165714" cy="23.834417" rx="6.16457143" ry="6.01041821"></ellipse>
                <ellipse id="Oval-13" fill="#30CCE4" cx="12.1165714" cy="23.834417" rx="4.464" ry="4.3523718"></ellipse>
                <path d="M12.1412029,21.3134328 C11.3935872,21.3615218 10.7787966,21.5787016 10.2968309,21.9649721 C9.81486516,22.3512425 9.4545882,22.8699521 9.216,23.5211006" id="Path-4" stroke="#FFFFFF" stroke-width="2" stroke-linecap="round"></path>
                <path d="M11.8813948,32.7342048 C12.8263269,32.6783025 13.519189,33.4414872 13.9599811,35.023759 L12.6724634,43.1678603 L9.984,35.3200836 C10.3039977,33.6520667 10.9364626,32.790107 11.8813948,32.7342048 Z" id="Path-5" fill="#FF7878"></path>
            </g>
        </g>
        <g id="Group" transform="translate(52.000000, 37.000000)">
            <path d="M23.1516773,18.9438412 C24.3360833,19.8151095 25.0997503,21.0741726 25.3671608,22.5197114 C25.5785505,23.662419 25.544868,24.8581664 25.2997287,26.1013135 C25.054708,27.3438597 24.5679793,28.5600739 23.86249,29.7501308 C23.0896624,31.0537776 22.0350765,32.1784554 20.7334885,33.1176649 C19.3856239,34.0902671 17.8007844,34.7524883 16.012703,35.1255857 C14.7529769,35.3884375 13.5454075,35.504313 12.3886076,35.4630538 C11.135381,35.4183554 9.93269379,35.1806312 8.79817931,34.745685 C7.65520613,34.3074958 6.58608074,33.6632837 5.56952613,32.8090534 C4.72027718,32.0829652 3.96176052,31.2419171 3.29545927,30.293732 C2.63837237,29.3586595 2.09004391,28.3392768 1.65038176,27.2418172 C1.22310064,26.1752624 0.899328785,25.0362174 0.675734416,23.8275352 C0.311251386,21.8572522 0.253016087,19.9805253 0.520144262,18.2055822 C0.795362044,16.3768874 1.38751608,14.6959334 2.30098511,13.1939692 C3.22191163,11.679743 4.41560913,10.4089289 5.85935041,9.41052924 C7.28234586,8.42647608 8.87086072,7.75091197 10.5939787,7.39136977 C12.6981682,6.95231401 14.7411908,7.00948214 16.6675683,7.59390699 C18.5396039,8.16184558 20.1417852,9.08079349 21.4121786,10.364789 C22.7199746,11.6865878 23.5884979,13.1827046 23.8978579,14.8550095 C24.15528,16.2465539 23.9077262,17.6398236 23.1993485,18.8629959 C23.1836482,18.8901059 23.1677573,18.9170549 23.1516773,18.9438412 Z M30.6048604,3.78204806 C33.1919035,3.38329611 35.610821,3.60967515 37.7940861,4.51097406 C40.0269936,5.4327664 41.8505012,6.97222164 43.191661,9.04580638 C44.433823,10.9663294 45.216476,13.2373506 45.5698695,15.823452 C45.8277199,17.710378 45.8215291,19.5074864 45.5376926,21.2077865 C45.2371148,23.0083736 44.6220694,24.6633805 43.6906941,26.1414452 C42.7216932,27.6792207 41.436558,28.9463683 39.8720926,29.9136506 C38.3454042,30.8575762 36.5931109,31.4706598 34.6442779,31.7710417 C32.6899706,32.0722674 30.82349,32.0045297 29.0707217,31.5423972 C27.2780757,31.0697507 25.6806282,30.2303077 24.3273485,29.0360755 C23.0230083,27.8850311 21.9781944,26.4524662 21.1938657,24.773638 C20.4602002,23.2032527 19.9706195,21.4887046 19.7183221,19.6424159 C19.4594539,17.7480416 19.4784129,15.9292338 19.7874143,14.1964204 C20.1120927,12.3756936 20.7441215,10.7216068 21.6912182,9.26589228 C22.6640234,7.77066321 23.9377357,6.53848209 25.477577,5.59632058 C26.9835747,4.67486653 28.7022362,4.07530762 30.6048604,3.78204806 Z M33.8833662,17.4590974 C33.7570234,16.534532 33.5336874,15.8383921 33.2460493,15.3502671 C33.0641978,15.0416632 32.9305726,14.9139525 32.8170337,14.8606992 C32.6771333,14.7950815 32.5226596,14.7748815 32.2509978,14.8167538 C32.0792801,14.8432214 31.9668208,14.8861469 31.872164,14.949417 C31.7878422,15.005779 31.7201768,15.0779634 31.6455683,15.2039914 C31.5461846,15.3718696 31.4476763,15.6675306 31.3795372,16.1090019 C31.2992476,16.6291963 31.3016546,17.2517762 31.4012029,17.9802614 C31.5022247,18.7195294 31.6686512,19.3282146 31.8872168,19.8131479 C32.0598053,20.1960715 32.2245504,20.434772 32.3624798,20.5616347 C32.4838112,20.6732312 32.5613335,20.7184019 32.6217609,20.7363607 C32.7014874,20.7600551 32.8049715,20.7661099 32.97318,20.7401832 C33.1805561,20.7082195 33.3233177,20.6423626 33.480928,20.5063828 C33.5869493,20.414912 33.710009,20.210215 33.8307841,19.7943106 C33.9883338,19.2517684 34.0222534,18.4754609 33.8833662,17.4590974 Z M48.4528187,7.97560475 C48.4531774,7.97160535 48.4533875,7.96830755 48.4534769,7.9656945 C48.4532185,7.97324609 48.4530467,7.98138822 48.4529671,7.99011201 Z M48.4529671,7.99011201 C48.4523437,8.05843748 48.4573763,8.16244238 48.4707259,8.29785071 L49.0240631,13.9105093 L46.082667,10.1124511 L46.0334347,10.0475248 C45.8056478,9.74068348 45.5855881,9.44659077 45.3732812,9.16527261 C45.3064949,9.07677719 45.2736922,9.0402486 45.2949273,9.05895967 C45.4771887,9.21955731 45.6947445,9.34771011 45.9239943,9.42937524 C46.2846948,9.55786677 46.5959723,9.58544438 46.8321324,9.55918322 C47.2152801,9.51657695 47.5806041,9.35446327 47.8393164,9.13268079 C48.084799,8.92223952 48.2893452,8.60761775 48.3877953,8.26376038 L44.5423062,7.16275452 L48.4151911,8.16313581 C48.4408522,8.06379134 48.4503515,8.00310817 48.4528187,7.97560475 Z M49.0240631,13.9105093 L49.9560031,23.3634461 C49.9579327,23.3830187 49.9495882,23.3457594 49.9122697,23.250999 C49.822432,23.0228804 49.663661,22.7736182 49.4269479,22.5401385 C48.9093714,22.0296321 48.1515061,21.7785695 47.4998685,21.8510321 C46.8611233,21.922061 46.2190281,22.3038849 45.8472246,22.8428176 C45.6577277,23.1174953 45.5480708,23.3945095 45.503129,23.6379348 C45.4842728,23.7400683 45.4832624,23.7796308 45.4813869,23.7606068 L42.9748698,-1.66371903 L51.511074,9.49548197 L56.7885281,16.3957132 L55.8397509,6.77199235 C55.8489553,6.86535537 55.9661581,7.17098336 56.3752148,7.57582186 C56.9131057,8.10816613 57.6757135,8.35336989 58.3084279,8.28301162 C58.9587967,8.21069019 59.6414061,7.80359115 60.0382421,7.1944616 C60.3349134,6.7390814 60.3843277,6.44138244 60.3770791,6.36785804 L62.8852179,31.8086337 L49.0240631,13.9105093 Z M56.7885281,16.3957132 L59.5623577,20.0224743 C59.77681,20.2899348 59.9902661,20.5507472 60.2027135,20.8049164 C60.2481521,20.8592784 60.2791015,20.8892812 60.2940352,20.9007127 C60.1388078,20.7818875 59.9264327,20.6750951 59.6720791,20.6087944 C59.4557922,20.5524163 59.2726503,20.541891 59.1392152,20.5567291 C58.6586622,20.6101669 58.0328546,20.9617977 57.6348792,21.5959947 C57.4773795,21.8469797 57.3968009,22.0762499 57.3685272,22.256267 C57.3641233,22.2843064 57.3646903,22.2398923 57.3539195,22.1306408 L56.7885281,16.3957132 Z M52.4324746,5.24607844 L52.4400653,5.25587979 C52.5611036,4.39143371 52.8466571,3.57752548 53.3352312,2.82758114 C54.2680495,1.39573712 55.7370601,0.519639035 57.4242724,0.33201992 C59.127277,0.142644694 60.771606,0.671351185 62.0026759,1.88972639 C63.1049114,2.98059581 63.6431149,4.38406041 63.8011542,5.98709865 L65.3153227,21.3457471 C65.6811893,25.0568371 63.7776472,28.0902428 60.0233707,28.5077208 C59.2210044,28.5969444 58.4257652,28.5512417 57.6541967,28.3501218 C56.8445616,28.1390794 56.0985403,27.7639441 55.431286,27.2531667 C54.9341928,26.872646 54.4791274,26.4315006 54.0645488,25.9355044 C53.8471081,25.6753614 53.6294378,25.4100738 53.3733467,25.0908942 C53.2239196,25.9080515 52.9198304,26.6789102 52.4322089,27.3857222 C51.4834903,28.760899 50.0428894,29.6175569 48.384024,29.8020238 C46.6788195,29.9916436 45.0383574,29.4481981 43.8091278,28.2357594 C42.7055407,27.1472471 42.1515771,25.7406057 41.9945998,24.1483398 L40.5093226,9.08274442 C40.4041333,8.01577867 40.4367368,7.06319044 40.6694214,6.16237323 L40.6968172,6.06174866 C41.0342148,4.8833183 41.7011882,3.85741602 42.6325918,3.05896536 C43.5772251,2.2491735 44.7119418,1.74563943 45.9479769,1.60819152 C46.8530683,1.50754476 47.748491,1.58687467 48.6085681,1.89325797 C49.3371944,2.15281485 50.0034679,2.54528818 50.5838019,3.05664302 C51.0031096,3.4261113 51.3881163,3.85484888 51.7588888,4.34614253 C51.9764904,4.63447637 52.2010067,4.93444098 52.4324728,5.2460761 Z M52.4400653,5.25587979 L60.7040312,15.926671 L53.5608233,18.7683124 L52.4156758,7.15275175 C52.3511771,6.49852212 52.3548237,5.86466828 52.4400653,5.25587979 Z M84.4130678,10.0741358 C84.5079505,10.181142 84.5992972,10.292158 84.6869457,10.4070208 C85.4850304,11.4529043 85.8401967,12.6701292 85.9346824,14.0594469 L86.1899716,17.8132177 C86.2487946,18.6781509 86.2118237,19.4598387 86.0355617,20.208045 C85.8068761,21.1787815 85.3370691,22.0546815 84.6749633,22.7982192 C84.2102804,23.3200529 83.6627817,23.7856972 83.0303693,24.2161267 C81.7017997,25.1171211 80.3752157,25.8174977 79.0447095,26.3081823 C77.6750491,26.8133068 76.1992811,27.1222528 74.6256155,27.2429683 C72.7180619,27.3892963 70.9039522,27.2054172 69.2064065,26.6754991 C67.4456636,26.125853 65.8824243,25.2292453 64.5585513,24.0001225 C63.2575218,22.7922082 62.2349663,21.3095904 61.4946172,19.5885107 C60.7827268,17.9335884 60.3667165,16.1064127 60.2317582,14.1219867 C60.0995879,12.1785553 60.2552953,10.3340762 60.7115352,8.60151738 C61.1950321,6.76545088 62.0065903,5.12841925 63.1463698,3.72944386 C64.2920411,2.32323667 65.7239619,1.20669851 67.4036577,0.396673038 C69.031701,-0.38844323 70.850141,-0.84823028 72.8376965,-1.00069523 C74.5284275,-1.13039083 76.1087036,-1.0000034 77.5683924,-0.585206711 C79.0127844,-0.174756887 80.2766997,0.426875513 81.3398428,1.24929724 C82.3509017,2.03142796 83.176364,2.93148909 83.787969,3.95577265 C84.4297938,5.03066674 84.8264562,6.13025061 84.9053274,7.28997267 C84.9716989,8.26589931 84.8015863,9.21270824 84.4130678,10.0741358 Z M93.5397103,21.5727452 C93.3547635,22.5173007 92.9781555,23.3861626 92.3610039,24.1579005 C91.3052427,25.4781126 89.7918188,26.2272903 88.1100778,26.3095559 C86.3370577,26.3962867 84.6754992,25.7520294 83.493202,24.4021697 C82.4698763,23.2338119 82.0069198,21.7854128 81.9363338,20.1578223 L81.281828,5.06605009 C81.2046792,3.28713238 81.5941741,1.69364202 82.7043683,0.40070655 C83.8634692,-0.949185834 85.4617968,-1.56121647 87.2697992,-1.64965844 L93.3544436,-1.94730073 C94.3515984,-1.99607851 95.2354392,-1.99266165 96.0192644,-1.9316798 C97.0178692,-1.85398803 97.9670411,-1.63483558 98.8527178,-1.26485603 C99.9317079,-0.83515088 100.900761,-0.197298129 101.736234,0.627192749 C102.587051,1.46682597 103.249555,2.46003203 103.710835,3.57739728 C104.149488,4.63995564 104.393243,5.76798728 104.444091,6.94045222 C104.547582,9.32678275 103.937217,11.4726763 102.542623,13.1940855 C102.488811,13.2605076 102.434069,13.3260491 102.378405,13.3907155 C102.611532,13.7142794 102.835561,14.0449219 103.050437,14.3825651 C103.657527,15.3365095 104.150323,16.2277214 104.528673,17.0680252 C105.026695,18.1741142 105.293836,18.9656217 105.333877,19.8889046 C105.378196,20.9108193 105.127231,21.8919803 104.640809,22.7742206 C104.158331,23.6493089 103.464713,24.369209 102.613511,24.8893329 C101.757677,25.4122865 100.799808,25.6888129 99.8006577,25.7376883 C98.5637758,25.7981928 97.3624526,25.5038142 96.3207319,24.8121063 C95.6062001,24.3376535 94.9943643,23.7349138 94.4946844,23.0274579 C94.2385208,22.6647767 93.9237572,22.1843115 93.5397103,21.5727452 Z M93.2122674,9.06649486 C93.4711919,9.06174251 93.6848847,9.06528318 93.8492188,9.07592195 C93.9165962,9.08028386 93.9608057,9.08481537 93.9776143,9.08701058 C93.8919253,9.07078785 93.7811467,9.04068076 93.6280853,8.9805649 C93.4833946,8.92448541 93.3330052,8.83136645 93.1969308,8.71285995 L93.111488,6.7426963 C93.3141357,6.49952912 93.5264204,6.36291757 93.6595902,6.32006059 C93.5261508,6.36300434 93.3379241,6.40251229 93.0980966,6.43391439 L93.0395944,5.08495496 L89.0433507,5.25826561 L89.1115971,6.65341278 L89.0817516,6.65487273 L89.2771857,10.6500956 L93.2734294,10.4767849 L93.2122674,9.06649486 Z M93.9776143,9.08701058 C93.9803575,9.08736884 93.9823708,9.08766487 93.983636,9.08788779 C93.9799977,9.08724673 93.9762946,9.08657435 93.9725255,9.08586911 Z M112.723232,20.289995 L110.854715,20.3417902 C110.445091,21.589469 110.065819,22.4884013 109.584134,23.2057659 C108.56251,24.727252 106.949116,25.4742942 105.189177,25.5230796 C103.61984,25.5665815 102.170193,24.9755459 101.045143,23.8943598 C99.9349285,22.8274306 99.2833887,21.4279185 99.2453082,19.8784049 C99.2290774,19.217963 99.3124323,18.5603735 99.4856167,17.9129216 C99.5938567,17.5082651 99.7511728,17.0188523 99.9526468,16.4463005 L104.362989,3.58053488 C104.488879,3.20962905 104.640225,2.76447213 104.817065,2.24495458 C105.078135,1.47798564 105.380426,0.795410939 105.742619,0.188538961 C106.26858,-0.692732453 106.98309,-1.42667101 107.849049,-1.97963492 C108.84455,-2.61531939 109.975938,-2.92401387 111.175425,-2.95726359 C112.382884,-2.99073429 113.534168,-2.74647385 114.567295,-2.16242266 C115.447253,-1.6649613 116.191901,-0.987445466 116.762062,-0.156111302 C117.141523,0.397167856 117.462333,0.98961383 117.723764,1.61690184 C117.895518,2.02901523 118.106986,2.56059165 118.330779,3.14196113 L123.455526,15.6381898 C124.038908,17.0223013 124.360962,18.1078483 124.387306,19.1798204 C124.424496,20.6930842 123.867899,22.0891652 122.866029,23.2102288 C121.791993,24.412044 120.331087,25.1033467 118.716133,25.1481131 C117.799305,25.1735276 116.900289,25.0004736 116.06505,24.5855108 C115.319091,24.2149039 114.672394,23.6879661 114.158189,23.0331664 C113.768826,22.5373434 113.460617,21.9802905 113.164017,21.3096069 C112.997684,20.9334897 112.850889,20.5940065 112.723232,20.289995 Z M111.58435,13.1916364 L112.647827,14.5939438 L115.184405,6.41785445 L107.615125,6.62747658 L110.600269,14.6505041 L111.58435,13.1916364 Z M132.7076,8.30720218 L132.802598,18.5754028 C132.818329,20.2756856 132.402742,21.7993096 131.349557,23.0375193 C130.249924,24.3303367 128.706328,25.0376961 127.012316,25.0557592 C125.312029,25.0731207 123.746643,24.3961977 122.615796,23.1193012 C121.537568,21.9018206 121.08596,20.3836248 121.070276,18.6883646 L120.975365,8.42963197 L120.894129,8.43047969 C119.305802,8.44705442 117.840825,8.00238325 116.679369,6.90740958 C115.5426,5.83571044 114.960389,4.39684848 114.945782,2.85272132 C114.931395,1.26312999 115.515291,-0.226585263 116.698249,-1.32505755 C117.825734,-2.37201821 119.245015,-2.83429184 120.780294,-2.850313 L132.684469,-2.97453703 C134.282202,-2.99120991 135.754548,-2.54355068 136.920233,-1.44305653 C138.056486,-0.37034807 138.64354,1.0694513 138.658155,2.6163334 C138.672305,4.17901929 138.096099,5.64354217 136.952562,6.73560203 C135.813907,7.82299972 134.370618,8.28984804 132.798304,8.30625566 L132.7076,8.30720218 Z M144.887355,13.5872567 C144.906917,13.3842743 144.918462,13.1533628 144.920268,12.8954148 L144.988461,3.15867163 C145.000209,1.4813154 145.427802,-0.0159243569 146.471424,-1.2306936 C147.595811,-2.53947263 149.176014,-3.22283807 150.890606,-3.20929324 C152.584126,-3.19591486 154.135545,-2.50577814 155.24819,-1.21962893 C156.316234,0.0149655536 156.74538,1.54329407 156.733755,3.24434558 L156.667488,12.6863833 C156.654407,14.5541029 156.464281,16.1789585 156.06816,17.5841392 C155.587912,19.2877473 154.684459,20.7948867 153.385841,22.0659062 C152.277239,23.1388478 150.971999,23.9300237 149.508547,24.4158375 C148.170933,24.8598776 146.695829,25.0627973 145.086095,25.0500808 C143.278625,25.0358022 141.655121,24.8064931 140.210376,24.3349729 C138.565441,23.7981169 137.149882,22.9295832 136.028886,21.7290382 C134.92549,20.5473417 134.150365,19.0945942 133.6901,17.4271677 C133.288658,15.972846 133.105989,14.3363094 133.118797,12.507523 L133.184926,3.06542673 C133.196632,1.39407469 133.631608,-0.105196313 134.675756,-1.31906257 C135.797982,-2.62369833 137.372988,-3.31592976 139.087563,-3.30260565 C140.811373,-3.28877574 142.390425,-2.58490037 143.502739,-1.25251461 C144.52821,-0.0241541853 144.941782,1.48052869 144.930083,3.15104219 L144.862452,12.8074271 C144.860403,13.1000024 144.869483,13.3603801 144.887355,13.5872567 Z M164.522609,13.8125408 L168.126504,13.9182422 C169.695413,13.9642579 171.140764,14.4975224 172.246932,15.6263061 C173.33099,16.7325268 173.883452,18.1813017 173.843381,19.7223522 C173.802782,21.2836726 173.168628,22.7242866 171.986835,23.7706355 C170.816274,24.8070401 169.361567,25.2271457 167.807022,25.1815512 L158.768407,24.9164508 C156.943885,24.862938 155.325725,24.280787 154.140114,22.9344075 C153.019863,21.6622499 152.609949,20.0838214 152.656068,18.3102291 L153.049113,3.19482666 C153.092589,1.52283936 153.556519,0.031360609 154.62575,-1.16239468 C155.775188,-2.44569921 157.366208,-3.10531066 159.080799,-3.0550221 C160.772097,-3.00541673 162.307117,-2.28358678 163.392665,-0.976806753 C164.43503,0.277988779 164.834612,1.81379641 164.790438,3.51259137 L164.522609,13.8125408 Z M180.056637,21.0788436 L178.189748,20.9825899 C177.697235,22.1823336 177.257424,23.0428371 176.727631,23.7189333 C175.591362,25.168984 173.917796,25.7907806 172.153001,25.6997907 C170.590312,25.6192211 169.196113,24.9200618 168.158175,23.7618712 C167.133672,22.6186723 166.585866,21.1811984 166.656423,19.6376205 C166.686625,18.9768931 166.816217,18.3261278 167.035056,17.6921608 C167.171707,17.2962896 167.363232,16.8199455 167.604535,16.2644571 L172.905478,3.78369201 C173.057052,3.42377249 173.239222,2.99182468 173.452033,2.48774142 C173.767225,1.74114776 174.117946,1.08182969 174.523758,0.502409811 C175.114724,-0.341375267 175.885116,-1.02233649 176.79437,-1.50890587 C177.838132,-2.06745443 178.9923,-2.28654125 180.193088,-2.22463067 C181.396831,-2.16256768 182.523254,-1.82919002 183.506162,-1.16925082 C184.342383,-0.607799742 185.031718,0.12075858 185.537985,0.988118924 C185.875959,1.56715034 186.153084,2.18065216 186.368916,2.82435532 C186.511159,3.24858804 186.684649,3.79516133 186.867151,4.39303336 L191.100776,17.2604936 C191.584582,18.6845311 191.828932,19.7897214 191.780037,20.8593972 C191.710696,22.3763549 191.053172,23.733784 189.967371,24.7801734 C188.802857,25.9024192 187.287193,26.4800845 185.668647,26.396635 C184.754824,26.3495197 183.874251,26.1068291 183.075894,25.6301514 C182.364308,25.2052819 181.762205,24.6341336 181.29971,23.9468815 C180.94888,23.4255598 180.682007,22.8486523 180.434387,22.1593844 C180.290589,21.7591086 180.164787,21.3993608 180.056637,21.0788436 Z M179.456351,13.9120521 L180.393553,15.3626493 L183.496867,7.41009234 L175.93196,7.0808368 L178.34575,15.3178465 L179.456351,13.9120521 Z M200.942476,10.8486783 L200.238346,21.0487714 C200.120902,22.7500831 199.58498,24.2396946 198.428523,25.3910852 C197.220731,26.5935869 195.614994,27.1668458 193.92158,27.0349904 C192.232573,26.9034781 190.737479,26.0976494 189.719531,24.7380152 C188.74812,23.4405386 188.418052,21.8946397 188.534487,20.2079539 L189.243457,9.93774983 L189.121492,9.92825322 C187.543398,9.80537705 186.127343,9.23691125 185.065821,8.0550671 C184.026188,6.89759326 183.561524,5.42232342 183.667418,3.88833366 C183.777346,2.29590804 184.481253,0.850795376 185.758665,-0.14972574 C186.974828,-1.10227444 188.433022,-1.43976154 189.968435,-1.32020869 L201.841318,-0.395742579 C203.428786,-0.272136547 204.851933,0.299943224 205.917236,1.48764353 C206.956339,2.64613318 207.425712,4.12269846 207.319624,5.65949316 C207.21156,7.22492798 206.517362,8.64539726 205.280305,9.64283582 C204.049504,10.6352304 202.566942,10.9751652 200.994375,10.8527193 L200.942476,10.8486783 Z M200.643906,21.123568 L202.014954,5.72285753 C202.16434,4.04483625 202.731836,2.57491331 203.896455,1.45094621 C205.13047,0.260005238 206.757027,-0.288030023 208.458097,-0.117217422 C210.136219,0.0512909418 211.612408,0.874449143 212.606066,2.24475064 C213.561233,3.56196988 213.862634,5.11762794 213.712266,6.80668111 L212.341218,22.2073916 C212.190428,23.9011851 211.616584,25.3819761 210.434749,26.5087973 C209.191377,27.6942904 207.560769,28.2278788 205.859223,28.0570184 C204.172698,27.8876662 202.704783,27.0330559 201.724748,25.6501252 C200.794588,24.337574 200.495301,22.7928251 200.643906,21.123568 Z M223.233368,1.6850056 C225.819853,2.02380104 228.082179,2.91375559 229.944401,4.37882829 C231.840839,5.87082033 233.195441,7.83433645 233.963844,10.1781934 C234.67953,12.3612475 234.869754,14.7599196 234.569302,17.3471412 C234.349255,19.241993 233.895856,20.9785318 233.196495,22.5468445 C232.452445,24.2153723 231.436061,25.6568757 230.153221,26.8378744 C228.815641,28.0692685 227.236561,28.9454501 225.463566,29.4470996 C223.741514,29.9343351 221.889207,30.0355398 219.929241,29.7788101 C217.97387,29.5226822 216.198939,28.937507 214.635885,28.0085725 C213.044759,27.0629547 211.732782,25.8252251 210.7399,24.3185632 C209.781196,22.8637655 209.137042,21.2098704 208.800586,19.3886613 C208.484395,17.6771473 208.437975,15.8919214 208.652634,14.0434761 C208.87357,12.1409691 209.344827,10.3866362 210.076849,8.79354889 C210.849508,7.1120254 211.88246,5.67593284 213.175688,4.52068215 C214.506187,3.33213698 216.065,2.48710986 217.807355,2.00309936 C219.503514,1.53192188 221.319868,1.43436222 223.233368,1.6850056 Z M222.858439,15.9042498 C222.966733,14.9717259 222.923612,14.2286254 222.763144,13.6624036 C222.655849,13.283804 222.539109,13.090882 222.414056,12.9828856 C222.27395,12.8618892 222.111789,12.7912274 221.830043,12.7543224 C221.664252,12.7326059 221.557301,12.7415049 221.467007,12.7706336 C221.396037,12.7935282 221.337139,12.8294086 221.253698,12.9107617 C221.132904,13.0285327 220.974933,13.2701496 220.805833,13.6624494 C220.602318,14.1345903 220.451159,14.7314974 220.366584,15.4597821 C220.280148,16.2040933 220.289636,16.8429133 220.381474,17.3801139 C220.455763,17.8146674 220.562472,18.1106329 220.677262,18.292621 C220.781161,18.4573437 220.864403,18.5428352 220.939636,18.5906968 C221.024878,18.6449261 221.133601,18.6834314 221.307534,18.7062144 C221.505399,18.732132 221.639552,18.7116278 221.801382,18.6358232 C221.892313,18.5932289 222.035439,18.4556207 222.239604,18.1143295 C222.517789,17.6493014 222.740661,16.9184506 222.858439,15.9042498 Z M239.425239,10.6862359 C239.426567,10.6824894 239.427642,10.6792301 239.428485,10.6764517 C239.426068,10.6844144 239.423555,10.6931743 239.420957,10.7027197 Z M239.420957,10.7027197 C239.403592,10.7665446 239.382477,10.8654938 239.361201,10.9961438 L238.418417,16.7856492 L236.554056,12.2638149 L236.524585,12.1902766 C236.383852,11.8287866 236.247284,11.48179 236.114897,11.1493171 C236.069201,11.0345562 236.041668,10.9792198 236.049775,10.9917332 C236.170776,11.1785099 236.330522,11.3470118 236.51216,11.4787609 C236.809057,11.6941121 237.089056,11.8056378 237.314854,11.8471119 C237.702783,11.9183659 238.116607,11.8652806 238.44759,11.7151988 C238.770844,11.5686221 239.077673,11.2991701 239.27797,10.9678504 L235.854881,8.89844045 L239.331978,10.8757602 C239.387259,10.7785491 239.414511,10.7164977 239.425239,10.6862359 Z M238.418417,16.7856492 L236.930538,25.9225111 C236.927147,25.9433351 236.928535,25.9083026 236.917663,25.8129931 C236.891533,25.5839404 236.808838,25.318196 236.653353,25.0468923 C236.313055,24.4531092 235.688323,24.0203631 235.067095,23.9062574 C234.416973,23.7868444 233.660601,23.9790421 233.126347,24.4220357 C232.852604,24.649019 232.661723,24.9030394 232.547623,25.1420735 C232.499331,25.243241 232.486638,25.2864091 232.48911,25.2712263 L236.628315,-0.147055323 L241.989999,13.0742556 L245.293831,21.2228501 L246.809223,11.9170368 C246.796175,11.9971595 246.828478,12.3044454 247.097723,12.7760418 C247.451558,13.3958008 248.082509,13.8248918 248.685092,13.935573 C249.347643,14.057269 250.151086,13.85199 250.728861,13.3455975 C251.164018,12.9642025 251.298211,12.669219 251.312783,12.5797339 L247.170957,38.0141158 L238.418417,16.7856492 Z M245.293831,21.2228501 L247.041916,25.5343396 C247.180215,25.8547553 247.319275,26.1684945 247.459083,26.475559 C247.494335,26.5529831 247.523488,26.602878 247.543685,26.6299146 C247.4393,26.4901805 247.28027,26.3427088 247.071337,26.2167605 C246.889979,26.1074344 246.725371,26.0476246 246.598877,26.0243906 C246.103939,25.9334814 245.370216,26.1004237 244.782223,26.6343166 C244.54721,26.8477063 244.398593,27.0629057 244.318058,27.2441803 C244.303489,27.2769731 244.314158,27.2388833 244.331279,27.133749 L245.293831,21.2228501 Z M243.965093,9.25082856 L243.993066,9.31867395 C244.334553,8.56364964 244.811857,7.89376946 245.455875,7.32931766 C246.760193,6.18614412 248.440525,5.75682066 250.130338,6.06720184 C251.79332,6.37265485 253.200088,7.32935607 254.045182,8.80957934 C254.805685,10.14164 254.961831,11.6270022 254.705215,13.2028486 L252.22727,28.4195608 C251.621054,32.1422512 248.929366,34.5862806 245.153632,33.8927617 C244.364389,33.7477953 243.619792,33.4772482 242.941187,33.0681735 C242.235008,32.6424768 241.631218,32.0825713 241.134547,31.4177057 C240.762457,30.9196109 240.444645,30.3756838 240.178242,29.7905774 C240.028542,29.4617893 239.880045,29.1274293 239.705604,28.7226628 C239.349758,29.4286936 238.866002,30.0552539 238.23272,30.5803598 C236.929069,31.6613245 235.282664,32.0796834 233.621849,31.7746285 C231.956791,31.4687942 230.557674,30.4996398 229.712415,29.0247523 C228.949836,27.6941343 228.779631,26.202099 229.034546,24.6366993 L231.465209,9.710332 C231.63828,8.64752791 231.915745,7.73361081 232.377783,6.92112066 L232.431791,6.82903045 C233.075843,5.76367998 234.009886,4.94342 235.143831,4.4292416 C236.285506,3.91155813 237.527165,3.75227797 238.7601,3.97874076 C239.648648,4.14194729 240.477492,4.47208191 241.209346,5.00292521 C241.825941,5.45016643 242.349753,6.00268834 242.763941,6.64202469 C243.065234,7.10709775 243.320542,7.62021294 243.547349,8.18981273 C243.682899,8.53023191 243.822139,8.88388739 243.965092,9.250826 Z M243.993066,9.31867395 L249.18876,21.9203461 L241.542752,22.8021382 L243.416791,11.2939222 C243.531825,10.5875143 243.718567,9.92558637 243.993066,9.31867395 Z M251.0825,20.9110375 C250.499598,19.321126 250.428489,17.6038996 250.814742,15.8375045 C251.212054,14.0205408 252.07797,12.4365984 253.389512,11.188914 C254.710076,9.93264687 256.364828,9.14891339 258.246978,8.83501827 C259.938537,8.55290893 261.732599,8.66370059 263.618439,9.12883208 C265.143346,9.5049416 266.486236,10.0592432 267.636635,10.8184773 C268.786643,11.5774532 269.741599,12.4790379 270.472432,13.5305342 C271.183738,14.553936 271.681094,15.6311485 271.929614,16.7641251 C272.178314,17.8979225 272.198246,19.025892 271.959212,20.1190289 C271.693973,21.3320062 271.074336,22.3962975 270.171246,23.2212645 C270.441876,23.786451 270.652391,24.3823137 270.800969,25.0043296 C271.129102,26.3780519 271.100926,27.8333142 270.768408,29.3539678 C270.359141,31.2256086 269.498939,32.8691879 268.204053,34.19974 C266.87295,35.5675055 265.18295,36.4642684 263.236353,36.8799835 C261.41155,37.2696884 259.467572,37.1895535 257.427003,36.6862589 C254.983456,36.0835721 252.947196,35.0299503 251.376005,33.4598343 C250.232329,32.3025484 249.392353,30.9193966 248.875904,29.3550321 C248.338321,27.7266505 248.205356,26.1128282 248.545156,24.5588706 C248.86362,23.102489 249.689605,21.8562657 250.925215,21.0144635 C250.977255,20.9790093 251.029689,20.9445339 251.0825,20.9110375 Z" id="CONGRATULATIONS" stroke="#FFD257" stroke-width="8" stroke-linecap="round" stroke-linejoin="round"></path>
            <path d="M20.4505792,23.4292308 C20.4084825,23.2016686 20.3221343,23.0634205 20.1704666,22.9583314 C20.021415,22.855055 19.8956163,22.8290581 19.7282353,22.8639834 C19.5057412,22.9104086 19.4326859,22.9611624 19.4051058,23.0202277 C19.2824947,23.2828109 19.1916365,23.6348522 19.1362779,24.1076022 C18.9373125,25.4447813 18.4607663,26.5563465 17.6974637,27.418865 C16.9221965,28.2949034 15.8880626,28.8657094 14.6281794,29.128594 C13.4634782,29.3716181 12.3639006,29.288056 11.3551324,28.8691449 C10.3378511,28.4466985 9.48466639,27.682521 8.79986017,26.6058463 C8.1441941,25.5749867 7.67355242,24.2516184 7.37468964,22.6360583 C6.92437528,20.2017977 7.06634901,18.1699802 7.83768704,16.5524249 C8.64152348,14.8667178 9.98911151,13.8034636 11.8052607,13.4245097 C12.9543213,13.1847492 14.0131826,13.2728114 14.9529912,13.7049181 C15.8484237,14.1166215 16.6664213,14.8186468 17.4153024,15.7961663 C17.750522,16.234992 18.0204549,16.5173002 18.1904698,16.6316094 C18.2200833,16.65152 18.3248267,16.6640181 18.551904,16.6166366 C18.687619,16.5883186 18.778049,16.5204168 18.8725627,16.3572177 C18.9876886,16.1584271 19.0202462,15.975188 18.9812763,15.7645289 C18.8701995,15.1640815 18.5057268,14.5362415 17.8578682,13.8814462 C17.2006589,13.2172002 16.3252094,12.7150769 15.215998,12.3785641 C14.120372,12.0461728 12.9247704,12.0127173 11.6152725,12.2859544 C10.5404924,12.5102158 9.57241018,12.9219221 8.70325572,13.5229741 C7.83928772,14.1204394 7.13108995,14.874389 6.5729504,15.7921055 C6.01294648,16.7128876 5.64309099,17.7628003 5.46446308,18.9497001 C5.28381277,20.1500377 5.32483688,21.4721061 5.592316,22.9180158 C5.7572501,23.8095987 5.99067772,24.6308083 6.29177534,25.382391 C6.58977771,26.1262476 6.95465507,26.8045812 7.38639944,27.4189784 C7.81584024,28.0300974 8.29315521,28.5593473 8.81214254,29.0031185 C9.38885497,29.4876304 9.98038621,29.8440634 10.5880354,30.0770219 C11.1977992,30.310791 11.8559176,30.4408752 12.5668276,30.466231 C13.3018443,30.4924466 14.1101427,30.4148842 14.9914092,30.231001 C16.1221328,29.9950666 17.0580812,29.6039829 17.8077276,29.0630475 C18.5689431,28.5137639 19.1506162,27.8934306 19.561461,27.2003956 C19.9891405,26.4789631 20.2648021,25.790153 20.3941947,25.133979 C20.5235577,24.4779553 20.539551,23.9101845 20.4505792,23.4292308 Z M31.3665371,8.72369239 C30.0949543,8.91968686 29.004229,9.30018878 28.0871405,9.86131513 C27.1785128,10.4172646 26.4464664,11.1254416 25.8822752,11.9926195 C25.3116569,12.869676 24.920182,13.8942078 24.7097632,15.074191 C24.4954251,16.2761527 24.4819137,17.5723532 24.6722822,18.965452 C24.8582558,20.3263902 25.209349,21.5559447 25.7238756,22.6572708 C26.2257364,23.7314862 26.8629252,24.6051484 27.6357087,25.2871087 C28.3962574,25.958272 29.2954114,26.4307686 30.3454521,26.7076208 C31.4054621,26.9871016 32.5823383,27.0298125 33.8826012,26.8293974 C35.194633,26.6271684 36.3122185,26.2361531 37.2426708,25.6608703 C38.1636788,25.0914267 38.8998735,24.3655363 39.4604876,23.4758584 C40.0305081,22.5712529 40.4124741,21.5434322 40.6059363,20.3845127 C40.8035837,19.2005213 40.8080418,17.9064224 40.6159095,16.500416 C40.3571001,14.6064724 39.813711,13.0297223 38.9932825,11.7612471 C38.1976034,10.5310373 37.1679903,9.66180955 35.8861615,9.132643 C34.5919222,8.59835309 33.091029,8.45788912 31.3665371,8.72369239 Z M38.8373263,16.7821335 C39.0652369,18.4499627 39.0010358,19.9193147 38.6324266,21.1886671 C38.2546237,22.4896788 37.6278065,23.5323241 36.7471245,24.2921404 C35.8793398,25.0408295 34.868639,25.5070729 33.7348567,25.6818276 C32.8512882,25.8180157 32.0020487,25.768327 31.1973535,25.5291744 C30.3878335,25.2885879 29.6457185,24.8561729 28.9776642,24.2417194 C28.3137594,23.6310825 27.7657335,22.8370433 27.3288257,21.8676725 C26.9034123,20.9238041 26.6106602,19.853098 26.4472429,18.6572253 C26.2849666,17.4697025 26.2806987,16.3657821 26.4380501,15.3463062 C26.5984391,14.3071496 26.8976252,13.409178 27.3429914,12.6568692 C27.7945515,11.8940978 28.3800587,11.2694875 29.0936315,10.7925243 C29.8046204,10.3172881 30.60663,10.0111624 31.4893212,9.87510951 C32.7214346,9.68519862 33.8802826,9.83673738 34.9402475,10.3338942 C36.0068026,10.8341421 36.8803122,11.6689887 37.5537684,12.8118511 C38.200778,13.9098332 38.6259015,15.2349466 38.8373263,16.7821335 Z M48.4545467,8.27555518 L48.4422386,8.25932361 C48.2098306,7.94625742 47.9850453,7.64584927 47.7678841,7.35809883 C47.5871029,7.11855407 47.4222237,6.93494712 47.2782553,6.80809093 C47.1745434,6.71670639 47.0606632,6.64962439 46.9307094,6.60333126 C46.8336184,6.56874473 46.6923833,6.55623202 46.5005741,6.57756133 C46.2765282,6.60247538 46.079337,6.68997961 45.8867947,6.85503751 C45.690945,7.02293071 45.5686713,7.21100546 45.5105275,7.41284984 C45.4463351,7.66136462 45.4327021,8.05968746 45.4851997,8.59218585 L46.9704769,23.6577812 C47.0220656,24.1810606 47.1513789,24.5094169 47.3202653,24.6759964 C47.4577412,24.8115943 47.5992486,24.8584723 47.8314268,24.832654 C48.0542856,24.8078719 48.1932014,24.7252652 48.3165937,24.5464069 C48.4543128,24.3467817 48.5191159,23.9957793 48.4669131,23.4662716 L46.9942274,8.52839547 L49.1282784,11.3181957 L57.2218185,21.8991407 C57.448923,22.1823807 57.6752834,22.4589602 57.9009017,22.7288869 C58.0847678,22.9488618 58.2747607,23.133043 58.4705042,23.282883 C58.6237075,23.4001587 58.770731,23.4740892 58.9153732,23.5117922 C59.0695321,23.5519758 59.253283,23.5625361 59.4707735,23.538351 C60.2045327,23.4567565 60.4591933,23.05094 60.3394457,21.8363057 L58.8252771,6.47765721 C58.7717651,5.93486976 58.6431906,5.59958803 58.4855127,5.44353605 C58.3600433,5.31936052 58.2200498,5.27434794 57.9768696,5.30138973 C57.7506455,5.32654601 57.6263974,5.40064589 57.524613,5.55688143 C57.3977874,5.75155431 57.3375519,6.11444607 57.3915529,6.66219318 L58.8774481,21.7340576 L48.4545467,8.27555518 Z M80.9462054,14.3987069 C80.9122881,13.8999865 80.8190434,13.5804186 80.7120253,13.4401722 C80.6129466,13.3103303 80.520492,13.2512052 80.4002836,13.2281926 C80.1284644,13.1761558 79.7714766,13.1639138 79.3340891,13.1974657 L75.0952371,13.5226271 C74.8258486,13.5432918 74.6712443,13.6112273 74.5758041,13.7167898 C74.4822299,13.8202884 74.4472518,13.9249874 74.4587863,14.0945908 C74.4730661,14.3045617 74.4991651,14.3512517 74.538198,14.3717708 C74.7168774,14.4657004 75.0726465,14.5129964 75.597678,14.4727214 L79.4964017,14.1736511 L79.820175,18.9344125 L79.3422006,19.2565051 C78.5360465,19.7997481 77.728219,20.2349171 76.9184015,20.5606506 C76.0791113,20.8982388 75.1759593,21.1034276 74.2123611,21.177345 C72.1403555,21.3362881 70.4122446,20.7158052 69.1194454,19.3224859 C67.8677356,17.9734509 67.174198,16.0294116 67.0036134,13.5211358 C66.9253181,12.3698823 66.9935156,11.2990524 67.211172,10.3100935 C67.4344211,9.29572377 67.8033451,8.41026686 68.3218311,7.66049949 C68.8491838,6.89791017 69.5125384,6.29046177 70.3042917,5.84716066 C71.0935484,5.40525734 71.9948262,5.1478568 72.9984784,5.07086686 C73.9800951,4.99556726 74.8297527,5.09366489 75.5456804,5.38268674 C76.2334007,5.66032118 76.8071017,6.03657519 77.2565208,6.51477433 C77.6397316,6.92252536 78.0957617,7.50567869 78.5932446,8.21766774 C78.6792748,8.3240427 78.7734488,8.39719824 78.8844913,8.44682319 C78.9906345,8.49425859 79.0867276,8.51147554 79.1871829,8.50376964 C79.4072582,8.48688771 79.567294,8.40478352 79.7197275,8.22676255 C79.8732601,8.04745809 79.9330089,7.86682649 79.9168504,7.62923261 C79.8971996,7.34028693 79.762648,6.96729779 79.4950315,6.51910787 C79.21986,6.05826531 78.8173789,5.61941102 78.2805046,5.2040981 C77.7566514,4.79885793 77.065406,4.46982037 76.2016644,4.22437273 C75.341747,3.98001181 74.3487577,3.898081 73.2201219,3.9846584 C71.8302719,4.09127349 70.6171975,4.39799569 69.5755281,4.90033586 C68.546772,5.39644874 67.6990529,6.05745644 67.0227162,6.88759809 C66.3449065,7.71954769 65.8528946,8.71200773 65.5466994,9.87477562 C65.2336901,11.0634204 65.1238156,12.3649725 65.2202352,13.7827268 C65.3182291,15.2236291 65.6086116,16.4990294 66.0876874,17.6127306 C66.5596485,18.7098925 67.1836087,19.6145813 67.9605277,20.3358958 C68.7317357,21.0519081 69.6401697,21.5729473 70.6963342,21.9026472 C71.7682981,22.2372792 72.9486404,22.3569193 74.2431901,22.2576147 C75.3696466,22.1712044 76.392764,21.957019 77.3146365,21.6170366 C78.2462976,21.2734443 79.2165658,20.7611864 80.2226127,20.0789186 C80.5291396,19.8702884 80.7682661,19.6669128 80.9408695,19.473081 C81.0641171,19.3346753 81.1360187,19.2006232 81.1687856,19.0615328 C81.2146583,18.8668098 81.2291858,18.5596494 81.2014946,18.1524776 L80.9462054,14.3987069 Z M90.6620686,12.4369774 C91.4518487,12.3983437 92.1383901,12.4810344 92.7229174,12.6990905 C93.3305608,12.9257701 93.9020157,13.3449679 94.4477115,13.9414159 C94.9435404,14.4833592 95.4911149,15.2485935 96.0960404,16.2358474 L97.7104267,18.8122167 C98.0812004,19.404881 98.3718045,19.8499487 98.57871,20.1428894 C98.7283996,20.3548228 98.8968892,20.5208073 99.0865532,20.6467453 C99.1944201,20.7183694 99.3406825,20.7542103 99.556365,20.7436598 C99.7474958,20.7343103 99.8924618,20.6924602 100.006463,20.6228001 C100.121622,20.5524327 100.20241,20.4685832 100.262224,20.3600966 C100.321052,20.253398 100.341515,20.1733972 100.338572,20.1055429 C100.335044,20.02418 100.211707,19.658746 99.9694999,19.1208131 C99.6973755,18.516434 99.3182925,17.8308699 98.8321979,17.0670498 C98.3522866,16.3129458 97.813349,15.6062382 97.2150156,14.9464041 C96.6571587,14.331207 96.0951096,13.8853763 95.531981,13.601904 L93.2375646,12.4469219 L95.7089702,11.7465756 C97.0874786,11.3559343 98.0612197,10.7827492 98.6575821,10.0466326 C99.2326179,9.33684048 99.5022127,8.38901191 99.4487863,7.15709054 C99.4228157,6.55825361 99.3027813,6.00276701 99.0891754,5.48534561 C98.8812261,4.98162593 98.5939705,4.55098157 98.2241669,4.18603874 C97.8542719,3.82100585 97.4410499,3.55110775 96.9491546,3.35878688 C96.5637586,3.19439124 96.1257762,3.09171625 95.6314348,3.05325632 C95.0779189,3.01019261 94.3992535,3.00756895 93.5987363,3.04672781 L87.5140918,3.3443701 C86.9582788,3.37155878 86.6386523,3.49394996 86.4978029,3.65798361 C86.3447268,3.8362565 86.2500006,4.2237974 86.2771325,4.84941177 L86.9316384,19.9411839 C86.9570263,20.5265842 87.0786342,20.9070449 87.2544695,21.1078007 C87.390562,21.2631811 87.563678,21.3303056 87.8657851,21.3155274 C88.1382218,21.3022006 88.310866,21.216738 88.4560707,21.0351619 C88.6100127,20.8426599 88.7014239,20.4539678 88.675006,19.844817 L88.3586266,12.5496547 L90.6620686,12.4369774 Z M92.4462367,4.09061107 C93.86728,4.02109796 94.8379801,4.08393976 95.4518878,4.32506615 C96.1075226,4.57928378 96.6431324,4.99723012 97.0362676,5.56505955 C97.4252187,6.1268457 97.6345025,6.78263581 97.6660527,7.51012782 C97.7054918,8.41952435 97.5117566,9.1977248 97.0562511,9.81186152 C96.6179347,10.402823 95.9859662,10.8239273 95.1913329,11.0796577 C94.4937019,11.3041706 93.6571311,11.4370377 92.6770079,11.4849823 L88.321693,11.6980311 L88.0012014,4.30804867 L92.4462367,4.09061107 Z M117.302105,18.2796812 C117.423258,18.5700671 117.568203,18.9060801 117.736815,19.2873514 C117.879726,19.6105077 118.003447,19.8341197 118.090597,19.9450982 C118.146536,20.0163324 118.210138,20.0681561 118.289716,20.107692 C118.346974,20.1361388 118.439098,20.1538719 118.577587,20.150033 C118.804185,20.1437517 118.971536,20.0645609 119.137862,19.8784471 C119.322229,19.6721454 119.393502,19.4933751 119.388816,19.3026619 C119.381966,19.0239406 119.204582,18.4260341 118.844341,17.571217 L113.697165,5.02024505 C113.457543,4.4002291 113.261102,3.90642769 113.108539,3.54036132 C112.978395,3.22808859 112.821831,2.93895972 112.638658,2.67188039 C112.50316,2.47431482 112.329094,2.31594199 112.106657,2.19019302 C111.922512,2.08609152 111.663454,2.03112888 111.313971,2.04081653 C110.973001,2.05026821 110.720665,2.11911703 110.540001,2.23448105 C110.326952,2.37052522 110.162078,2.53988211 110.036095,2.75097277 C109.86917,3.03066329 109.705705,3.3997682 109.550363,3.85613081 C109.373963,4.37435628 109.223074,4.81816828 109.096721,5.19042373 L104.679873,18.07513 C104.506835,18.5671936 104.385026,18.9461438 104.315805,19.2049298 C104.262819,19.4030169 104.239631,19.5859508 104.243799,19.7555634 C104.248537,19.9483716 104.32427,20.1110455 104.5097,20.2892458 C104.691421,20.4638819 104.85465,20.530432 105.05063,20.5249995 C105.304016,20.5179757 105.394398,20.4761263 105.433098,20.4184913 C105.602064,20.1668538 105.851904,19.5636224 106.145282,18.6559832 L107.18311,15.4416462 L116.109189,15.1942158 L117.302105,18.2796812 Z M115.773681,14.2165357 L107.458303,14.4470375 L111.278236,2.13434296 L115.773681,14.2165357 Z M132.74613,3.30652788 C133.151711,3.3022955 133.388146,3.22581811 133.499353,3.11961707 C133.609315,3.01460462 133.660381,2.88481278 133.658363,2.66200104 C133.656213,2.43445299 133.601323,2.29983012 133.487825,2.192679 C133.38166,2.09245118 133.146378,2.02091503 132.736643,2.02519075 L120.832468,2.14941478 C120.449154,2.15341479 120.219828,2.22810865 120.100522,2.33889343 C119.99511,2.436777 119.943416,2.56866644 119.945574,2.80705952 C119.947733,3.03531494 120.001182,3.16740808 120.109245,3.26928481 C120.211161,3.36536724 120.440378,3.43494251 120.841956,3.43075191 L125.92884,3.37766857 L126.070062,18.6421083 C126.075537,19.2339165 126.187708,19.6110081 126.358908,19.8043183 C126.516925,19.982743 126.692718,20.0587619 126.960812,20.0560245 C127.220868,20.0532515 127.389607,19.9759262 127.540933,19.7980153 C127.703898,19.6064207 127.808379,19.2233725 127.802812,18.6216592 L127.661612,3.35958652 L132.74613,3.30652788 Z M138.118674,12.5425406 C138.108901,13.9380577 138.241232,15.1236161 138.509851,16.096755 C138.763764,17.0166177 139.156066,17.7518756 139.683423,18.3166546 C140.206379,18.8767216 140.893692,19.2984312 141.761691,19.5817191 C142.679737,19.881341 143.801457,20.0397764 145.125593,20.0502368 C146.215423,20.0588462 147.151059,19.9301372 147.933257,19.6704756 C148.683994,19.4212574 149.339218,19.024091 149.904523,18.4769928 C150.568037,17.8275342 151.014747,17.0823332 151.255722,16.2275098 C151.517729,15.2980796 151.657436,14.1041151 151.667611,12.6513511 L151.733877,3.20943943 C151.737913,2.61879848 151.632407,2.24305471 151.466809,2.05163381 C151.312329,1.87306467 151.131824,1.79276834 150.851108,1.79055075 C150.57566,1.78837478 150.406754,1.86141893 150.264016,2.02756467 C150.101087,2.21721287 149.992515,2.597384 149.988339,3.19368922 L149.920146,12.9304324 C149.907032,14.8028261 149.54604,16.2516153 148.788116,17.2700322 C147.963773,18.3776964 146.622695,18.9011926 144.867108,18.8873239 C143.620958,18.8774796 142.604978,18.6185204 141.833242,18.0770538 C141.061376,17.5354964 140.523776,16.7742526 140.23386,15.8271154 C139.975076,14.9816845 139.854222,13.9650827 139.862575,12.7724096 L139.930205,3.11602461 C139.934315,2.52916964 139.830183,2.15030807 139.664458,1.95179428 C139.520458,1.77930462 139.341637,1.69959367 139.047702,1.69723543 C138.782482,1.6951744 138.614894,1.76883113 138.466338,1.94153371 C138.298247,2.1369466 138.188913,2.51379898 138.184804,3.10044432 L138.118674,12.5425406 Z M159.792127,3.3826206 C159.807484,2.79203406 159.709056,2.41371855 159.546592,2.21814502 C159.394924,2.03556761 159.215236,1.95107103 158.934213,1.94282869 C158.669519,1.93506527 158.501354,2.00478387 158.350198,2.17354325 C158.178991,2.36468993 158.062664,2.73866595 158.047423,3.32479743 L157.654378,18.4401999 C157.638057,19.067872 157.738648,19.4552108 157.89258,19.6300164 C158.030173,19.7862666 158.352121,19.902091 158.914993,19.9186 L167.953608,20.1837004 C168.33185,20.1947941 168.556061,20.130044 168.672337,20.0270946 C168.785804,19.9266314 168.839554,19.8045283 168.84507,19.5923814 C168.850428,19.3863241 168.799087,19.2516869 168.675806,19.1258853 C168.558052,19.0057245 168.344064,18.9267733 167.979918,18.916093 L159.394759,18.6642923 L159.792127,3.3826206 Z M184.777066,19.4293455 C184.877532,19.7286031 184.998526,20.0752506 185.139949,20.468913 C185.260056,20.8032402 185.368086,21.036772 185.447868,21.1553262 C185.499735,21.2323979 185.560976,21.2904908 185.63913,21.3371547 C185.695592,21.3708665 185.787164,21.3961042 185.926097,21.4032674 C186.15127,21.4148769 186.321137,21.3501356 186.497781,21.1799035 C186.694103,20.9907073 186.776599,20.8203987 186.785252,20.6310848 C186.797998,20.3522465 186.662912,19.7412541 186.363486,18.8597791 L182.111498,5.93644284 C181.916035,5.29911879 181.754775,4.7910751 181.628298,4.4138678 C181.520219,4.0915281 181.384078,3.79013739 181.219756,3.50861475 C181.097509,3.29917435 180.933619,3.12595889 180.719031,2.98188141 C180.541115,2.86242597 180.285505,2.78677548 179.935638,2.7687369 C179.595528,2.75120141 179.340129,2.79968196 179.153476,2.89956556 C178.933196,3.01744395 178.758486,3.17187287 178.619194,3.37075405 C178.433614,3.63572654 178.245042,3.99022252 178.05836,4.43241322 C177.846084,4.93523152 177.664469,5.36586263 177.512333,5.7271032 L172.203502,18.2264076 C171.996494,18.7032198 171.848504,19.0712875 171.761392,19.3236471 C171.694827,19.5164827 171.658945,19.6966715 171.651208,19.8659329 C171.642349,20.0597399 171.70738,20.2303862 171.881725,20.4249303 C172.052712,20.6157266 172.213301,20.6962585 172.410451,20.7064232 C172.662043,20.7193948 172.752052,20.6859527 172.792012,20.6349581 C172.977284,20.3985231 173.268437,19.8173993 173.624348,18.9363695 L174.887863,15.8057089 L183.806304,16.2655289 L184.777066,19.4293455 Z M183.540299,15.2642217 L175.231912,14.8358551 L179.905294,2.85984151 L183.540299,15.2642217 Z M201.382519,5.86780763 C201.785937,5.89921929 202.025579,5.84427214 202.141901,5.75048181 C202.256659,5.65795248 202.316249,5.53602009 202.331495,5.31515405 C202.347236,5.08712798 202.302257,4.94562973 202.195119,4.82618243 C202.094531,4.71403779 201.863349,4.62110681 201.453175,4.58916912 L189.580292,3.66470301 C189.199028,3.63501639 188.966587,3.68881275 188.84175,3.78659083 C188.732224,3.8723758 188.671865,3.99629171 188.655547,4.23267277 C188.639758,4.46140008 188.683487,4.60023537 188.785636,4.7139629 C188.882312,4.82159785 189.107599,4.91203746 189.509636,4.94334152 L194.572913,5.33758683 L193.522616,20.552293 C193.481799,21.1435752 193.564509,21.5309552 193.722041,21.7413651 C193.867939,21.9362356 194.040225,22.0290946 194.309723,22.0500787 C194.567638,22.0701609 194.738789,22.0090589 194.900759,21.8477987 C195.075563,21.6737607 195.208884,21.3031894 195.250218,20.7044323 L196.301725,5.47219843 L201.382519,5.86780763 Z M205.62421,21.5669393 C205.572332,22.1496762 205.647586,22.5380934 205.804231,22.7591367 C205.948408,22.962585 206.110815,23.0571373 206.358785,23.0820372 C206.634388,23.1097118 206.816577,23.0500937 206.984444,22.890041 C207.167695,22.7153204 207.308593,22.3517347 207.360915,21.7640203 L208.731962,6.36330981 C208.784389,5.77441029 208.709664,5.38872034 208.55828,5.17995581 C208.41652,4.98446184 208.239994,4.88602642 207.958535,4.85776377 C207.703738,4.83217837 207.533614,4.88949799 207.36864,5.048714 C207.186316,5.22467348 207.04694,5.58568301 206.995257,6.16622883 L205.62421,21.5669393 Z M222.583981,6.64265591 C221.31009,6.47579285 220.16591,6.53724877 219.145633,6.82067256 C218.136905,7.10088809 217.261005,7.57571072 216.506701,8.24953568 C215.74308,8.93168426 215.114245,9.80594236 214.620165,10.8811997 C214.115925,11.9785661 213.781423,13.2238088 213.619256,14.6202461 C213.460665,15.9858896 213.494098,17.2716875 213.717384,18.4803149 C213.935604,19.6615184 214.335333,20.6878425 214.914875,21.567276 C215.485873,22.4337435 216.241025,23.1461599 217.19035,23.7103508 C218.146693,24.2787125 219.273484,24.650203 220.578628,24.8211598 C221.893054,24.9933323 223.065715,24.9292615 224.102309,24.6359687 C225.126167,24.3462794 226.010325,23.855688 226.766717,23.1593434 C227.536795,22.4503999 228.157378,21.5702482 228.629962,20.5104809 C229.113718,19.42566 229.439004,18.1797996 229.60268,16.7703712 C229.823439,14.8693971 229.690532,13.1934885 229.212651,11.7358101 C228.74795,10.3183324 227.965046,9.18350159 226.852817,8.30847321 C225.732033,7.426715 224.315437,6.86945377 222.583981,6.64265591 Z M227.825062,16.4810199 C227.630673,18.1549203 227.203289,19.556413 226.53045,20.6811639 C225.839105,21.836849 224.969005,22.6734042 223.922333,23.1636884 C222.893386,23.6456701 221.797719,23.8131337 220.658147,23.6638647 C219.773347,23.5479675 218.9691,23.2631347 218.255815,22.8093582 C217.540027,22.3539897 216.936455,21.7341063 216.448241,20.9600891 C215.96275,20.1903882 215.633026,19.2758739 215.452975,18.222669 C215.27731,17.1951259 215.260771,16.081597 215.399962,14.883012 C215.538331,13.6914977 215.808567,12.6243721 216.214235,11.6832515 C216.628507,10.7221706 217.142665,9.93576528 217.76324,9.33071933 C218.393153,8.71656892 219.11909,8.2743312 219.931919,8.01211436 C220.739917,7.75145606 221.592593,7.68050816 222.47943,7.79667207 C223.712763,7.95822252 224.788433,8.42694633 225.68209,9.19871365 C226.57951,9.97373095 227.209943,11.0155747 227.573692,12.2990895 C227.924149,13.5356988 228.005099,14.9307052 227.825062,16.4810199 Z M239.327566,11.1202915 L239.320198,11.1019069 C239.176729,10.7333909 239.037352,10.3792564 238.902067,10.039503 C238.788454,9.7541775 238.675505,9.52717403 238.567587,9.36059252 C238.487893,9.23757684 238.391304,9.13569476 238.273605,9.05032252 C238.18472,8.98585081 238.048903,8.93175386 237.856821,8.89647275 C237.636927,8.85608293 237.429944,8.88263467 237.20868,8.98296486 C236.985484,9.08417132 236.826987,9.22336132 236.724155,9.39277039 C236.600548,9.61013144 236.485885,9.9878117 236.400204,10.5139644 L233.969541,25.4403317 C233.884621,25.9618131 233.925545,26.3205541 234.050501,26.5385898 C234.154788,26.7205582 234.288999,26.8135248 234.525128,26.8568966 C234.741607,26.896659 234.886276,26.859898 235.041237,26.7314072 C235.216092,26.5864204 235.365388,26.2736565 235.450107,25.7534057 L237.869484,10.8963489 L239.209905,14.2016766 L244.287534,26.7231958 C244.433617,27.0616468 244.580695,27.3934758 244.728768,27.7186909 C244.850701,27.9864959 244.988102,28.2216529 245.140258,28.4253363 C245.26127,28.587327 245.388297,28.7051218 245.522531,28.7860404 C245.663659,28.8711146 245.840003,28.9351886 246.05691,28.9750298 C246.76985,29.105981 247.098176,28.8078636 247.292276,27.6159284 L249.77022,12.3992162 C249.858296,11.8583505 249.819931,11.4933934 249.70302,11.2886184 C249.607257,11.120884 249.474063,11.030303 249.227059,10.9849338 C249.007474,10.9446009 248.879501,10.9772978 248.751491,11.0894926 C248.587827,11.2329367 248.439481,11.5590294 248.351786,12.0975545 L245.9108,27.087312 L239.327566,11.1202915 Z M265.883825,28.2858666 C266.064579,27.4592483 266.078234,26.7539732 265.937782,26.1659718 C265.795522,25.5704047 265.535332,25.049267 265.152612,24.5911411 C264.734349,24.0904702 264.186043,23.6103486 263.504913,23.1534737 C262.779924,22.6671795 261.952528,22.1803709 261.006936,21.6852073 C260.23077,21.2607133 259.674075,20.9456067 259.329712,20.7353392 C258.941012,20.4979998 258.571407,20.212507 258.221061,19.8800566 C257.823144,19.5024645 257.523639,19.0821836 257.331998,18.620618 C257.115645,18.0995375 257.074387,17.5366499 257.200633,16.9593098 C257.407165,16.0148061 258.033246,15.306699 258.986848,14.8863645 C259.879328,14.4929724 260.909502,14.451809 262.052415,14.733702 C263.278474,15.0361024 264.173648,15.5322597 264.704789,16.2748668 C265.161063,16.9127988 265.48295,17.6999347 265.670671,18.5915409 C265.791693,19.0695759 265.915742,19.4044111 266.022284,19.5784672 C266.041004,19.6090514 266.109013,19.6529449 266.288117,19.6971197 C266.451199,19.7373431 266.565084,19.7130218 266.714578,19.5997643 C266.914228,19.448509 267.025154,19.2771776 267.074628,19.0509276 C267.152755,18.6936413 267.145638,18.2908929 267.045728,17.8354108 C266.945772,17.3797235 266.72235,16.8958195 266.366729,16.3841646 C266.01599,15.8795334 265.523676,15.4147345 264.882498,14.991573 C264.241417,14.5684761 263.421835,14.2301793 262.421099,13.9833534 C261.162546,13.6729386 260.046253,13.6040023 259.069492,13.7669014 C258.140378,13.9218541 257.40471,14.2702857 256.835755,14.8115388 C256.264545,15.3549375 255.887656,16.0443459 255.699326,16.9056057 C255.498702,17.8230916 255.541479,18.607395 255.811952,19.2811056 C256.097949,19.993487 256.560936,20.6159424 257.213422,21.1574045 C257.932725,21.7543141 258.875807,22.3605136 260.036538,22.9685661 C260.980473,23.4567074 261.732847,23.8854026 262.298318,24.2588405 C262.956515,24.6935154 263.471162,25.225428 263.829578,25.8517621 C264.236001,26.5619903 264.336901,27.3750564 264.147141,28.2428574 C263.904126,29.3542024 263.210938,30.1912972 262.140252,30.6887656 C261.126074,31.159979 259.958656,31.223307 258.669043,30.9052313 C257.733789,30.6745564 256.981139,30.315207 256.420799,29.8085341 C255.880228,29.3197376 255.486224,28.7575502 255.251523,28.1276347 C255.047948,27.5812578 254.895208,26.9434096 254.788314,26.2036084 C254.730307,25.7773025 254.631164,25.4692927 254.509155,25.2787394 C254.439087,25.1693064 254.358482,25.1121091 254.22085,25.0781629 C254.017078,25.0279036 253.881669,25.0503776 253.740394,25.1466256 C253.573891,25.260062 253.4785,25.4039843 253.42974,25.6269719 C253.293598,26.2495698 253.352624,26.9659836 253.623859,27.7875735 C253.900376,28.6251676 254.334895,29.3406695 254.927952,29.9408123 C255.788033,30.8002439 257.013852,31.4345193 258.624343,31.8317376 C259.967055,32.1629097 261.154409,32.211855 262.192101,31.9902456 C263.199344,31.7751387 264.00038,31.3500859 264.620821,30.7125567 C265.250315,30.0657241 265.669956,29.26392 265.883825,28.2858666 Z" id="CONGRATULATIONS" stroke="#8B5FFE" stroke-width="2" fill="#8B5FFE"></path>
        </g>
        <path d="M328.103348,25.3175377 C332.308805,10.3281257 347.312328,1.14383535 361.614654,4.80385113 C375.91698,8.46386691 384.10211,23.5822153 379.896652,38.5716273 C375.760145,53.3152827 361.176746,62.44261 347.089336,59.2550087 L347.08959,62 L340.591043,60.9964945 L343.008257,57.96614 C330.829175,52.9577158 324.241212,39.083255 328.103348,25.3175377 Z" id="Combined-Shape" fill="#FAEE00"></path>
        <ellipse id="Oval" fill="#FFF867" fill-rule="nonzero" cx="356" cy="30" rx="25" ry="24"></ellipse>
        <path d="M367.772222,36.1504232 C360.258674,40.1886846 365.35426,28.8633994 361.411322,22.5058371 C357.468383,16.1482747 345.980031,17.1659147 353.493579,13.1276533 C361.007127,9.08939185 370.294444,10.9695567 374.237383,17.3271191 C378.180321,23.6846815 375.28577,32.1121617 367.772222,36.1504232 Z" id="Oval" fill="#FFFFFF" fill-rule="nonzero" opacity="0.600000024"></path>
        <g id="Group-8" transform="translate(361.957097, 85.759796) rotate(-49.000000) translate(-361.957097, -85.759796) translate(338.957097, 60.759796)">
            <path d="M2.66007368,20.399849 C5.72142065,8.98549801 16.6431771,1.9917137 27.0545002,4.7787942 C37.465823,7.56587566 43.4241563,19.0784111 40.3628107,30.4927624 C37.3517427,41.719646 26.736341,48.6699758 16.4817413,46.2432495 L16.4810357,48.3333333 L11.7504437,47.5691697 L13.5098736,45.2614986 C4.64426807,41.4475494 -0.151333923,30.882296 2.66007368,20.399849 Z" id="Combined-Shape-Copy" fill="#F9A360" transform="translate(21.511442, 26.250000) rotate(5.000000) translate(-21.511442, -26.250000) "></path>
            <ellipse id="Oval-Copy-5" fill="#F9B760" fill-rule="nonzero" transform="translate(23.512439, 22.090160) rotate(16.000000) translate(-23.512439, -22.090160) " cx="23.512439" cy="22.0901596" rx="17.5588102" ry="17.9216247"></ellipse>
            <path d="M33.0986047,20.7242064 C35.6380378,20.7271621 37.6938208,18.3034044 37.690329,15.3105895 C37.6868283,12.3177746 35.6253768,9.88922052 33.0859437,9.88625923 C30.5465106,9.88330383 32.5097821,12.1113357 32.5132783,15.1041506 C32.5167746,18.0969655 30.5591716,20.7212454 33.0986047,20.7242064 Z" id="Oval-Copy-6" fill="#FFFFFF" fill-rule="nonzero" opacity="0.400000006" transform="translate(34.738166, 15.305233) rotate(-20.000000) translate(-34.738166, -15.305233) "></path>
        </g>
    </g>
</svg>