<?xml version="1.0" encoding="UTF-8"?>
<svg width="47px" height="81px" viewBox="0 0 47 81" version="1.1" xmlns="http://www.w3.org/2000/svg" xmlns:xlink="http://www.w3.org/1999/xlink">
    <!-- Generator: Sketch 57.1 (83088) - https://sketch.com -->
    <title>Group 10</title>
    <desc>Created with Sketch.</desc>
    <g id="页面-2" stroke="none" stroke-width="1" fill="none" fill-rule="evenodd">
        <g id="3-4-成绩单备份-2" transform="translate(0.000000, -254.000000)">
            <g id="Group-10" transform="translate(-9.000000, 249.000000)">
                <path d="M20.3189573,50.7343391 L2.90099373,104.632109" id="Path-8" stroke="#737373" opacity="0.195424107" transform="translate(11.318957, 77.734339) rotate(5.000000) translate(-11.318957, -77.734339) "></path>
                <path d="M9.18051736,24.4271367 C12.840829,10.7299171 25.8994508,2.3373759 38.3477731,5.68186833 C50.7960927,9.02637025 57.9201869,22.8414127 54.2598878,36.5386358 C50.6596327,50.0111182 37.9669431,58.3515672 25.7058186,55.4390779 L25.7055862,57.9473195 L20.0494436,57.0303231 L22.1527985,54.260987 C11.5528173,49.6841313 5.81908962,37.0059517 9.18051736,24.4271367 Z" id="Combined-Shape" fill="#60F0F9" transform="translate(31.720203, 31.447319) rotate(5.000000) translate(-31.720203, -31.447319) "></path>
                <ellipse id="Oval" fill="#8FF8FF" fill-rule="nonzero" transform="translate(34.112699, 26.455511) rotate(16.000000) translate(-34.112699, -26.455511) " cx="34.1126988" cy="26.4555109" rx="21" ry="21.5"></ellipse>
                <path d="M45.5666108,24.8146922 C48.6041769,24.8146922 51.0666108,21.9045431 51.0666108,18.3146922 C51.0666108,14.7248413 48.6041769,11.8146922 45.5666108,11.8146922 C42.5290447,11.8146922 44.8743197,14.4844538 44.8743197,18.0743047 C44.8743197,21.6641556 42.5290447,24.8146922 45.5666108,24.8146922 Z" id="Oval" fill="#DDFDFF" fill-rule="nonzero" opacity="0.699999988" transform="translate(47.538485, 18.314692) rotate(-20.000000) translate(-47.538485, -18.314692) "></path>
            </g>
        </g>
    </g>
</svg>